<svg width="32" height="32" viewBox="0 0 32 32" fill="none" xmlns="http://www.w3.org/2000/svg">
<path d="M20 19.5H21V25H20.5L20 25V19.5Z" fill="url(#paint0_linear)"/>
<path d="M17 6H22L24 7V23H19L17 22L17 6Z" fill="url(#paint1_linear)"/>
<path d="M19 7H24L22 6H17L19 7Z" fill="url(#paint2_linear)"/>
<path d="M19 7H24V22H19V7Z" fill="url(#paint3_linear)"/>
<path opacity="0.2" d="M19 7H20V23H19V7Z" fill="url(#paint4_linear)"/>
<path opacity="0.6" d="M19 8L19 7L24 7L24 8L19 8Z" fill="url(#paint5_linear)"/>
<path d="M19 23L19 22L24 22L24 23L19 23Z" fill="#E4891E"/>
<path d="M20 4H21V7H20.5L20 7V4Z" fill="url(#paint6_linear)"/>
<path d="M11 21H12V27H11.5L11 27V21Z" fill="url(#paint7_linear)"/>
<path d="M8 10H13L15 11V25H10L8 24L8 10Z" fill="url(#paint8_linear)"/>
<path d="M10 11H15L13 10H8L10 11Z" fill="url(#paint9_linear)"/>
<path d="M10 11H15V25H10V11Z" fill="url(#paint10_linear)"/>
<path opacity="0.7" d="M10 11H11V25H10V11Z" fill="url(#paint11_linear)"/>
<path opacity="0.6" d="M10 11.9333L10 11L15 11L15 11.9333L10 11.9333Z" fill="url(#paint12_linear)"/>
<path d="M10 25L10 24L15 24L15 25L10 25Z" fill="#E4891E"/>
<path d="M11 8H12V11H11.5L11 11V8Z" fill="url(#paint13_linear)"/>
<defs>
<linearGradient id="paint0_linear" x1="21" y1="21.6116" x2="20.9409" y2="25.7376" gradientUnits="userSpaceOnUse">
<stop stop-color="#FFB800"/>
<stop offset="1" stop-color="#E97F04"/>
</linearGradient>
<linearGradient id="paint1_linear" x1="21" y1="4.5" x2="20.5" y2="28.5" gradientUnits="userSpaceOnUse">
<stop stop-color="#FFB800"/>
<stop offset="1" stop-color="#E97F04"/>
</linearGradient>
<linearGradient id="paint2_linear" x1="21.0879" y1="6" x2="21.0879" y2="7.44439" gradientUnits="userSpaceOnUse">
<stop offset="0.0001" stop-color="#FFCA08"/>
<stop offset="1" stop-color="#FF8A00"/>
</linearGradient>
<linearGradient id="paint3_linear" x1="21.5" y1="7" x2="21.5" y2="22" gradientUnits="userSpaceOnUse">
<stop stop-color="#FFC908"/>
<stop offset="0.520833" stop-color="#FFE60A"/>
<stop offset="1" stop-color="#FFA133"/>
</linearGradient>
<linearGradient id="paint4_linear" x1="19.5" y1="7" x2="19.5" y2="23" gradientUnits="userSpaceOnUse">
<stop stop-color="white" stop-opacity="0.39"/>
<stop offset="0.416128" stop-color="white"/>
<stop offset="1" stop-color="white" stop-opacity="0"/>
</linearGradient>
<linearGradient id="paint5_linear" x1="19" y1="7.5" x2="24" y2="7.5" gradientUnits="userSpaceOnUse">
<stop stop-color="white" stop-opacity="0.39"/>
<stop offset="0.416128" stop-color="white"/>
<stop offset="1" stop-color="white" stop-opacity="0"/>
</linearGradient>
<linearGradient id="paint6_linear" x1="21" y1="5.15179" x2="20.9824" y2="7.40263" gradientUnits="userSpaceOnUse">
<stop stop-color="#FFE600"/>
<stop offset="1" stop-color="#E97F04"/>
</linearGradient>
<linearGradient id="paint7_linear" x1="12" y1="23.3036" x2="11.9297" y2="27.8044" gradientUnits="userSpaceOnUse">
<stop stop-color="#FFB800"/>
<stop offset="1" stop-color="#E97F04"/>
</linearGradient>
<linearGradient id="paint8_linear" x1="12" y1="8.5" x2="11.5" y2="32.5" gradientUnits="userSpaceOnUse">
<stop stop-color="#FFB800"/>
<stop offset="1" stop-color="#E97F04"/>
</linearGradient>
<linearGradient id="paint9_linear" x1="12.0879" y1="10" x2="12.0879" y2="11.4444" gradientUnits="userSpaceOnUse">
<stop offset="0.0001" stop-color="#FFCA08"/>
<stop offset="1" stop-color="#FF8A00"/>
</linearGradient>
<linearGradient id="paint10_linear" x1="12.5" y1="11" x2="12.5" y2="25" gradientUnits="userSpaceOnUse">
<stop stop-color="#FFC908"/>
<stop offset="0.520833" stop-color="#FFE60A"/>
<stop offset="1" stop-color="#FFA133"/>
</linearGradient>
<linearGradient id="paint11_linear" x1="10.5" y1="11" x2="10.5" y2="25" gradientUnits="userSpaceOnUse">
<stop stop-color="white" stop-opacity="0.39"/>
<stop offset="0.416128" stop-color="white"/>
<stop offset="1" stop-color="white" stop-opacity="0"/>
</linearGradient>
<linearGradient id="paint12_linear" x1="10" y1="11.4667" x2="15" y2="11.4667" gradientUnits="userSpaceOnUse">
<stop stop-color="white" stop-opacity="0.39"/>
<stop offset="0.416128" stop-color="white"/>
<stop offset="1" stop-color="white" stop-opacity="0"/>
</linearGradient>
<linearGradient id="paint13_linear" x1="12" y1="9.15179" x2="11.9824" y2="11.4026" gradientUnits="userSpaceOnUse">
<stop stop-color="#FFB800"/>
<stop offset="1" stop-color="#E97F04"/>
</linearGradient>
</defs>
</svg>
