<svg width="115" height="135" fill="none" xmlns="http://www.w3.org/2000/svg"><g opacity=".8"><g opacity=".8"><path d="M75.21 39.775c.28 0 .505.226.505.505v1.28a.504.504 0 1 1-1.008 0v-1.28c0-.279.225-.505.504-.505z" fill="url(#a)"/><path d="M78.221 24.173a.504.504 0 0 1 .676-.23l1.397.69a.505.505 0 0 1-.446.905l-1.397-.69a.505.505 0 0 1-.23-.675z" fill="url(#b)"/><path fill-rule="evenodd" clip-rule="evenodd" d="M81.22 10.264c0-1.2 1.122-1.902 2.314-1.902 1.484 0 2.743.963 3.725 2.108.994 1.159 1.79 2.602 2.339 3.772l.37.788-.867-.07c-2.988-.243-4.826-1.054-5.89-1.779-1.378-.94-1.992-2.06-1.992-2.917zm2.314-.892c-.894 0-1.306.478-1.306.892 0 .403.331 1.252 1.55 2.083.803.546 2.209 1.21 4.504 1.512-.484-.929-1.089-1.916-1.789-2.732-.921-1.075-1.924-1.755-2.96-1.755z" fill="url(#c)"/><path fill-rule="evenodd" clip-rule="evenodd" d="M100.35 10.47c.982-1.145 2.241-2.108 3.725-2.108 1.192 0 2.315.703 2.315 1.902 0 .857-.613 1.977-1.991 2.917l-.005.003c-1.08.72-2.895 1.533-5.886 1.776l-.867.07.37-.788c.55-1.17 1.345-2.613 2.339-3.772zm-1.023 3.389c2.288-.302 3.682-.964 4.506-1.513 1.217-.831 1.548-1.679 1.548-2.082 0-.414-.412-.892-1.306-.892-1.034 0-2.038.68-2.959 1.755-.7.815-1.305 1.803-1.79 2.732z" fill="url(#d)"/><path fill-rule="evenodd" clip-rule="evenodd" d="M93.56 1.92a.504.504 0 0 1 .45 0l6.328 3.146c1.484-.843 3.162-1.388 5.016-1.388 2.594 0 4.875 1.123 5.969 3.092.482.855.674 1.77.674 2.687 0 .444-.06.886-.177 1.321l11.939 5.943a.51.51 0 0 1 .212.199.505.505 0 0 1 .108.312v9.625c0 .193-.11.369-.284.453l-1.625.792v19.834a.505.505 0 0 1-.278.451L94.09 62.362a.505.505 0 0 1-.305.047.505.505 0 0 1-.305-.047l-10.981-5.52a.503.503 0 0 1-.077-.03l-7.438-3.74a.506.506 0 0 1-.065-.04l-9.241-4.645a.505.505 0 0 1-.278-.45V28.085l-1.586-.776a.505.505 0 0 1-.283-.453v-9.684c0-.191.108-.366.28-.452l11.95-5.948a7.181 7.181 0 0 1-.13-1.375c0-3.326 2.886-5.68 6.644-5.68 1.823 0 3.476.526 4.944 1.346L93.56 1.92zm.224 1.015l5.555 2.762c-.516.358-1.006.75-1.468 1.162-1.724 1.54-3.09 3.389-4.067 4.95-.977-1.56-2.343-3.4-4.064-4.93-.476-.423-.98-.824-1.513-1.189l5.557-2.755zM109.5 14.238c.882-.774 1.546-1.621 1.967-2.509l11.009 5.48-10.044 4.926-8.788-4.832c2.492-.777 4.458-1.838 5.856-3.065zm1.82 8.437l-1.482.716a.505.505 0 0 0 .439.909l1.637-.792V52.27l-6.428 3.215V36.242l.032-.016-.032-.066v-9.5l3.082-1.515a.505.505 0 0 0-.444-.906l-3.135 1.54-10.552-6.032a1 1 0 0 0-.984-.005l-10.795 6.02a1 1 0 0 0-.513.874v28.899l-6.429-3.232v-7.457a.504.504 0 1 0-1.008 0v6.95l-8.298-4.17V28.58l1.95.954a.504.504 0 1 0 .443-.906l-4.262-2.086v-8.499l1.988.98a.504.504 0 1 0 .445-.905l-1.86-.918 10.921-5.436c.392 1.085 1.069 2.067 2.023 2.923.79.709 1.765 1.328 2.92 1.853l.046.03c.282.158 1.305.57 2.68.95l.051.013-8.583 4.59-5.465-2.668a.504.504 0 1 0-.442.907l5.443 2.657v8.517l-3.11-1.53a.504.504 0 1 0-.445.905l3.555 1.75v5.65a.504.504 0 1 0 1.008 0V23.517l.984.486a.504.504 0 1 0 .447-.904l-.862-.426 8.947-4.784c1.078.223 2.282.392 3.506.42a.505.505 0 0 0 .023-1.01 18.146 18.146 0 0 1-2.904-.315l-.583-.126c-2.96-.639-5.125-1.65-6.543-2.921-1.404-1.26-2.09-2.789-2.09-4.538 0-2.617 2.27-4.671 5.635-4.671 2.628 0 4.909 1.23 6.794 2.906 1.887 1.676 3.34 3.767 4.3 5.406l.436.743.435-.743c.96-1.64 2.414-3.74 4.303-5.427 1.888-1.686 4.174-2.925 6.811-2.925 2.325 0 4.215 1.002 5.088 2.575l.002.003c.383.68.545 1.418.545 2.192 0 1.33-.691 2.738-2.155 4.022-1.465 1.286-3.679 2.422-6.636 3.186l-1.231.318 10.352 5.692zm-17.38-2.05l9.953 5.69-10.107 4.94-10.067-4.929 10.221-5.7zm-10.786 6.548v8.531l10.128 4.975v-3.41a.504.504 0 1 1 1.008 0v3.317l10.187-4.974v-8.459L94.29 32.132v3.09a.504.504 0 1 1-1.01 0v-3.09l-10.127-4.959zm0 9.655l10.128 4.976v2.314a.504.504 0 1 0 1.008 0v-2.41l10.187-4.974v19.278l-10.186 5.12v-12.98a.504.504 0 1 0-1.01 0v12.98l-10.127-5.09V36.828zm38.008 10.797l-8.239 4.141V32.605l8.239-4.012v19.032zm1.909-21.084l-10.148 4.941V23.02l10.148-4.978v8.5z" fill="url(#e)"/></g><path d="M32.045 3.83c2.473.613 1.833 3.196 4.307 3.81 2.473.613 3.113-1.97 5.587-1.356 2.473.614 1.834 3.197 4.307 3.81.914.227 1.6-.003 2.19-.313m-.073 57.881c1.282-1.281 2.619.057 3.9-1.224 1.281-1.281-.056-2.62 1.225-3.9 1.28-1.281 2.618.057 3.9-1.224.473-.474.584-.975.612-1.449" stroke="#9DEBD8" stroke-miterlimit="10" stroke-linecap="round" stroke-linejoin="round"/><g opacity=".7" fill="#A5E1F1"><path d="M40.774 22.04c.08.035.176.021.238-.04l.322-.323a.2.2 0 0 1 .284 0l.698.705a.2.2 0 0 1 0 .283l-.325.324a.214.214 0 0 0-.04.236 1.992 1.992 0 0 1-.414 2.195.1.1 0 0 1-.14 0l-.848-.849a.099.099 0 0 1 0-.14.597.597 0 0 0 0-.848l-.15-.15a.588.588 0 0 0-.612-.148.59.59 0 0 0-.376.753l.49 1.452a1.984 1.984 0 0 1-2.675 2.453.214.214 0 0 0-.238.04l-.323.323a.2.2 0 0 1-.283 0l-.706-.706a.2.2 0 0 1 0-.283l.324-.323a.213.213 0 0 0 .04-.236 1.992 1.992 0 0 1 .414-2.195.099.099 0 0 1 .14 0l.848.848a.099.099 0 0 1 0 .14.597.597 0 0 0 0 .85l.15.148a.588.588 0 0 0 .612.149.59.59 0 0 0 .376-.753l-.481-1.452a1.984 1.984 0 0 1 2.675-2.453z"/><path fill-rule="evenodd" clip-rule="evenodd" d="M32 25c0-3.867 3.133-7 7-7a6.97 6.97 0 0 1 4.953 2.048A7.007 7.007 0 0 1 46 25c0 3.867-3.133 7-7 7s-7-3.133-7-7zm3.045 3.964a5.598 5.598 0 0 0 9.555-3.955 5.602 5.602 0 0 0-1.636-3.964 5.598 5.598 0 0 0-7.919 0 5.598 5.598 0 0 0 0 7.919z"/></g><g opacity=".3" fill="#22AAE7"><path d="M60.165-4.944a.224.224 0 0 1-.24-.044l-.099-.099a.2.2 0 0 0-.282 0l-.319.318a.2.2 0 0 0 0 .283l.1.1a.224.224 0 0 1 .044.239 1.212 1.212 0 0 0 .568 1.499c.289.154.63.18.946.075l.88-.293a.364.364 0 0 1 .375.601l-.087.086a.362.362 0 0 1-.51 0 .064.064 0 0 0-.09 0l-.515.515a.058.058 0 0 0 0 .083c.337.337.84.44 1.282.273a.223.223 0 0 1 .237.044l.1.1a.2.2 0 0 0 .284 0l.318-.317a.2.2 0 0 0 0-.283l-.1-.1a.224.224 0 0 1-.043-.239 1.212 1.212 0 0 0-.568-1.5 1.203 1.203 0 0 0-.947-.074l-.879.293a.364.364 0 0 1-.375-.601l.086-.087a.362.362 0 0 1 .51 0 .064.064 0 0 0 .091 0l.51-.51a.064.064 0 0 0 0-.09 1.202 1.202 0 0 0-1.277-.272z"/><path fill-rule="evenodd" clip-rule="evenodd" d="M64.192-6.13a4.248 4.248 0 0 0-6.01 0 4.248 4.248 0 0 0 0 6.01 4.248 4.248 0 0 0 6.01 0 4.248 4.248 0 0 0 0-6.01zm-.6 5.41a3.403 3.403 0 0 1-4.809 0 3.403 3.403 0 0 1 0-4.809 3.403 3.403 0 0 1 4.808 0 3.403 3.403 0 0 1 0 4.808z"/></g><path opacity=".4" d="M11.721 2.603L10.26 4.066a.2.2 0 0 0 0 .283l1.461 1.463a.2.2 0 0 0 .283 0l1.462-1.463a.2.2 0 0 0 0-.283l-1.462-1.463a.2.2 0 0 0-.283 0zm10.468 32.664L21.056 36.4a.718.718 0 0 0 0 1.016l1.133 1.132a.72.72 0 0 0 1.016 0l1.132-1.133a.718.718 0 0 0 0-1.015l-1.132-1.133a.718.718 0 0 0-1.016 0zM10.636 52.471l-.754.755a.48.48 0 0 0 0 .677l.754.755c.187.187.49.187.677 0l.754-.755a.48.48 0 0 0 0-.677l-.754-.755a.478.478 0 0 0-.677 0zm40.058-2.398l-1.132 1.133a.719.719 0 0 0 0 1.016l1.132 1.132c.28.28.734.28 1.015 0l1.131-1.132a.719.719 0 0 0 0-1.016l-1.131-1.133a.718.718 0 0 0-1.016 0zm46.919 49.491l-.754.755a.479.479 0 0 0 0 .677l.754.755c.187.187.49.187.677 0l.754-.755a.479.479 0 0 0 0-.677l-.754-.755a.478.478 0 0 0-.677 0zm7.826-11.79l-.755.755a.479.479 0 0 0 0 .677l.755.755c.187.187.49.187.677 0l.755-.755a.479.479 0 0 0 0-.677l-.755-.755a.479.479 0 0 0-.677 0z" fill="#67BEE3"/><path opacity=".3" d="M1.04 24.538l-.755.755a.479.479 0 0 0 0 .677l.755.755c.187.187.49.187.677 0l.755-.755a.479.479 0 0 0 0-.677l-.755-.755a.479.479 0 0 0-.677 0z" fill="#67BEE3"/><path opacity=".4" d="M24.864 55.692a1.959 1.959 0 0 0-.473 2.012l.473 1.427a.58.58 0 0 1-.37.739.577.577 0 0 1-.601-.146l-.146-.146a.587.587 0 0 1 0-.834.097.097 0 0 0 0-.138l-.833-.834a.097.097 0 0 0-.138 0 1.933 1.933 0 0 0-.409 2.153.214.214 0 0 1-.04.24l-.311.311a.2.2 0 0 0 0 .283l.688.688a.2.2 0 0 0 .282 0l.313-.312a.214.214 0 0 1 .238-.04 1.947 1.947 0 0 0 2.624-2.411l-.473-1.427a.58.58 0 0 1 .37-.74.577.577 0 0 1 .6.147l.147.146a.587.587 0 0 1 0 .834.097.097 0 0 0 0 .137l.833.834c.038.038.1.038.138 0a1.958 1.958 0 0 0 .406-2.154.214.214 0 0 1 .04-.236l.314-.314a.2.2 0 0 0 0-.283l-.688-.688a.2.2 0 0 0-.283 0l-.312.312a.214.214 0 0 1-.238.04 1.94 1.94 0 0 0-2.151.4z" fill="#67BEE3"/><path opacity=".8" d="M81.447 80.092c.54.539 1.347.733 2.074.486l1.47-.486a.598.598 0 0 1 .763.38c.07.22.017.46-.151.619l-.15.15a.605.605 0 0 1-.86 0 .1.1 0 0 0-.142 0l-.86.857a.1.1 0 0 0 0 .141 1.995 1.995 0 0 0 2.224.42.214.214 0 0 1 .239.039l.33.329a.2.2 0 0 0 .282 0l.718-.717a.2.2 0 0 0 0-.283l-.33-.328a.214.214 0 0 1-.04-.238 2.002 2.002 0 0 0-.906-2.58 2.005 2.005 0 0 0-1.577-.124l-1.471.486a.598.598 0 0 1-.762-.38.593.593 0 0 1 .15-.618l.151-.15a.605.605 0 0 1 .86 0 .1.1 0 0 0 .141 0l.86-.858a.1.1 0 0 0 0-.141 2.021 2.021 0 0 0-2.225-.417.214.214 0 0 1-.236-.04l-.33-.33a.2.2 0 0 0-.283 0l-.718.716a.2.2 0 0 0 0 .283l.328.328a.214.214 0 0 1 .04.238 1.994 1.994 0 0 0 .411 2.218z" fill="#B2E8EB"/></g><defs><linearGradient id="a" x1="115.429" y1="-3.899" x2="63.531" y2="53.766" gradientUnits="userSpaceOnUse"><stop stop-color="#48B2FF"/><stop offset=".921" stop-color="#7FDCD1"/></linearGradient><linearGradient id="b" x1="115.429" y1="-3.899" x2="63.531" y2="53.766" gradientUnits="userSpaceOnUse"><stop stop-color="#48B2FF"/><stop offset=".921" stop-color="#7FDCD1"/></linearGradient><linearGradient id="c" x1="115.429" y1="-3.899" x2="63.531" y2="53.766" gradientUnits="userSpaceOnUse"><stop stop-color="#48B2FF"/><stop offset=".921" stop-color="#7FDCD1"/></linearGradient><linearGradient id="d" x1="115.429" y1="-3.899" x2="63.531" y2="53.766" gradientUnits="userSpaceOnUse"><stop stop-color="#48B2FF"/><stop offset=".921" stop-color="#7FDCD1"/></linearGradient><linearGradient id="e" x1="115.429" y1="-3.899" x2="63.531" y2="53.766" gradientUnits="userSpaceOnUse"><stop stop-color="#48B2FF"/><stop offset=".921" stop-color="#7FDCD1"/></linearGradient></defs></svg>