<svg xmlns="http://www.w3.org/2000/svg" width="111" height="24" viewBox="0 0 111 24"><g fill="none"><path fill="#0DF" d="M110.725 2.837h-3.933l-7.167 7.164-7.073-7.164H70.817V21.03h2.764v-7.118H85.76V11.13H73.581V5.666h15.268V3.073l8.805 8.907-9.035 9.05h3.933l7.073-7.071 7.026 7.118h3.934l-8.993-9.097z"/><path fill="#FFF" d="M11.66 20.274c-5.9 0-10.303-6.315-6.98-12.59a6.358 6.358 0 0 1 2.155-2.31c6.185-3.954 12.836.528 12.977 6.512v.393c-.159 4.429-3.75 7.95-8.153 7.995zM54.05 2.837H36.53v2.671a9.69 9.69 0 0 0-7.12-3.19 9.587 9.587 0 0 0-7.683 3.863C18.6.807 11.515-1.55 5.1 2.271A9.884 9.884 0 0 0 1.357 6.37c-4.215 8.719 2.013 17.394 10.255 17.394a11.595 11.595 0 0 0 10.072-5.847c2.859 3.817 8.29 5.233 13.067 2.31a8.512 8.512 0 0 0 3.375-4.005l.657-1.574h-3.75l-.235.44a6.128 6.128 0 0 1-6.837 3.026 6.172 6.172 0 0 1-4.685-5.854v-.33c.113-3.356 2.845-6.02 6.181-6.028a6.005 6.005 0 0 1 4.92 2.498l.234.33h3.98l-.657-1.18-.704-1.133h6.37v14.707h3.464V6.37h7.038V2.829l-.051.008zm5.62 5.185l2.81 5.47h-5.395l2.577-5.47h.007zM49.784 21.03h3.652l2.436-4.856h7.683l2.577 4.856h3.604L59.666 1.75l-9.88 19.28z"/></g></svg>