<svg width="40" height="40" fill="none" xmlns="http://www.w3.org/2000/svg"><path d="M13.358 25.979l-.528-6.43c0-.7-.131-1.398-.131-1.958-.132.7-.264 1.258-.396 1.818l-1.581 6.57H8.745l-1.714-6.29c-.131-.7-.395-1.399-.527-2.098v2.097l-.263 6.29H4l.923-12.021h2.9l1.58 6.01c.132.7.264 1.259.396 1.958.132-.7.264-1.258.396-1.957l1.45-6.011h2.899l1.186 12.021h-2.372zM24.56 15.774h-2.636l.132 10.065h-2.372l-.132-10.065-2.768.14v-2.097h8.172l-.395 1.957zm11.022 4.613v-5.29l-2.609.516-.274 2.58c-.137.388-.137.646-.137 1.033v1.935h-3.845l1.236-1.935L33.385 12H30.09l-4.805 9.42v2.064h7.14V28l3.02-.387v-3.871h1.784v-2.58h-1.648v-.775z" fill="#2F374C"/></svg>