<svg width="44" height="46" viewBox="0 0 44 46" fill="none" xmlns="http://www.w3.org/2000/svg">
<path d="M17.9355 1.03741C20.4506 -0.345803 23.5494 -0.345803 26.0645 1.03741L39.9355 8.66575C42.4506 10.049 44 12.6052 44 15.3717V30.6283C44 33.3948 42.4506 35.951 39.9355 37.3343L26.0645 44.9626C23.5494 46.3458 20.4506 46.3458 17.9355 44.9626L4.06455 37.3343C1.5494 35.951 0 33.3948 0 30.6283V15.3717C0 12.6052 1.5494 10.049 4.06455 8.66575L17.9355 1.03741Z" fill="url(#paint0_linear)" fill-opacity="0.1"/>
<path fill-rule="evenodd" clip-rule="evenodd" d="M39.6814 9.08487L25.8105 1.45653C23.4526 0.159768 20.5474 0.159767 18.1895 1.45653L4.31858 9.08487C1.96063 10.3816 0.508068 12.7781 0.508068 15.3717V30.6283C0.508068 33.2219 1.96063 35.6184 4.31858 36.9151L18.1895 44.5435C20.5474 45.8402 23.4526 45.8402 25.8105 44.5435L39.6814 36.9151C42.0394 35.6184 43.4919 33.2219 43.4919 30.6283V15.3717C43.4919 12.7781 42.0394 10.3816 39.6814 9.08487ZM26.0645 1.03741C23.5494 -0.345803 20.4506 -0.345803 17.9355 1.03741L4.06455 8.66575C1.5494 10.049 0 12.6052 0 15.3717V30.6283C0 33.3948 1.5494 35.951 4.06455 37.3343L17.9355 44.9626C20.4506 46.3458 23.5494 46.3458 26.0645 44.9626L39.9355 37.3343C42.4506 35.951 44 33.3948 44 30.6283V15.3717C44 12.6052 42.4506 10.049 39.9355 8.66575L26.0645 1.03741Z" fill="url(#paint1_linear)" fill-opacity="0.5"/>
<path d="M38.4372 23.6837C38.4372 25.0583 37.7775 26.2882 36.6392 27.1564C35.3457 28.1211 33.6512 28.519 32.0213 28.519C31.2323 28.519 30.4174 28.3864 29.6801 28.097L29.8353 26.4691C30.4691 26.6741 31.1547 26.7706 31.7885 26.7706C33.5736 26.7706 35.4751 25.818 35.4751 23.9972C35.4751 22.924 34.7507 22.1523 33.6253 22.0076C32.5258 21.8629 31.1935 22.2487 30.2751 22.514L30.9477 15.3032H37.894L37.6741 17.4737H33.483L33.1985 20.0903C35.8243 19.6321 38.4372 21.1153 38.4372 23.6837Z" fill="#FE7C03"/>
<path fill-rule="evenodd" clip-rule="evenodd" d="M14.7612 22.0927L15.1946 27.7532H17.4457L16.425 17.1575H13.5028L11.9508 22.4165C11.8949 22.7079 11.8215 22.9929 11.7481 23.2779C11.6747 23.5629 11.6013 23.8478 11.5454 24.1393C11.4731 23.8835 11.4193 23.622 11.3652 23.3588C11.3042 23.0622 11.2428 22.7634 11.1539 22.4683L9.65784 17.1575H6.7077L5.6311 27.7403H7.91012L8.30161 22.2092C8.34356 21.5745 8.37152 20.9398 8.3855 20.3051C8.49736 20.9398 8.66514 21.5616 8.8469 22.1833L10.4828 27.7532H12.4402L14.2438 21.9502C14.4116 21.4061 14.5654 20.8751 14.6773 20.3181C14.6913 20.9139 14.7192 21.4968 14.7612 22.0927ZM23.2552 18.9062H25.9817L26.3732 17.1575H18.1239V18.9062H20.9203V27.7532H23.2552V18.9062Z" fill="#32374A"/>
<defs>
<linearGradient id="paint0_linear" x1="10.1641" y1="2.92656" x2="32.6904" y2="43.7485" gradientUnits="userSpaceOnUse">
<stop stop-color="#31B1FD"/>
<stop offset="1" stop-color="#0D6FFB"/>
</linearGradient>
<linearGradient id="paint1_linear" x1="12.3467" y1="7.02939" x2="33.4792" y2="39.6842" gradientUnits="userSpaceOnUse">
<stop stop-color="white"/>
<stop offset="1" stop-color="#3686FF"/>
</linearGradient>
</defs>
</svg>
