<svg width="32" height="32" viewBox="0 0 32 32" fill="none" xmlns="http://www.w3.org/2000/svg">
<path d="M15 19H16V25H15.5L15 25V19Z" fill="url(#paint0_linear)"/>
<path d="M12 8H17L19 9V23H14L12 22L12 8Z" fill="url(#paint1_linear)"/>
<path d="M14 9H19L17 8H12L14 9Z" fill="#8C9CAE"/>
<path d="M14 9H19V23H14V9Z" fill="url(#paint2_linear)"/>
<path opacity="0.7" d="M14 9H15V23H14V9Z" fill="url(#paint3_linear)"/>
<path opacity="0.6" d="M14 9.93335L14 9.00002L19 9.00002L19 9.93335L14 9.93335Z" fill="url(#paint4_linear)"/>
<path d="M14 23L14 22L19 22L19 23L14 23Z" fill="#92A4BF"/>
<path d="M15 6H16V9H15.5L15 9V6Z" fill="url(#paint5_linear)"/>
<defs>
<linearGradient id="paint0_linear" x1="15.5061" y1="19" x2="15.5061" y2="25.0251" gradientUnits="userSpaceOnUse">
<stop stop-color="#002559"/>
<stop offset="1" stop-color="#BDCDDF"/>
</linearGradient>
<linearGradient id="paint1_linear" x1="15.3741" y1="7.91105" x2="15.3741" y2="23.265" gradientUnits="userSpaceOnUse">
<stop stop-color="#8E9FB7"/>
<stop offset="0.333333" stop-color="#B4C5DE"/>
<stop offset="1" stop-color="#90A4C0"/>
</linearGradient>
<linearGradient id="paint2_linear" x1="16.5306" y1="9" x2="16.5306" y2="23.0586" gradientUnits="userSpaceOnUse">
<stop stop-color="#A7BBD1"/>
<stop offset="0.239583" stop-color="#E1E9F2"/>
<stop offset="1" stop-color="#A7B9D2"/>
</linearGradient>
<linearGradient id="paint3_linear" x1="14.5" y1="9" x2="14.5" y2="23" gradientUnits="userSpaceOnUse">
<stop stop-color="white" stop-opacity="0.39"/>
<stop offset="0.416128" stop-color="white"/>
<stop offset="1" stop-color="white" stop-opacity="0"/>
</linearGradient>
<linearGradient id="paint4_linear" x1="14" y1="9.46668" x2="19" y2="9.46668" gradientUnits="userSpaceOnUse">
<stop stop-color="white" stop-opacity="0.39"/>
<stop offset="0.416128" stop-color="white"/>
<stop offset="1" stop-color="white" stop-opacity="0"/>
</linearGradient>
<linearGradient id="paint5_linear" x1="15.5061" y1="6" x2="15.5061" y2="9.01257" gradientUnits="userSpaceOnUse">
<stop stop-color="#CBE0F8"/>
<stop offset="1" stop-color="#8498B5"/>
</linearGradient>
</defs>
</svg>
