<svg width="24" height="24" viewBox="0 0 24 24" fill="none" xmlns="http://www.w3.org/2000/svg">
<path fill-rule="evenodd" clip-rule="evenodd" d="M18.0002 1.99988C19.1042 1.99988 20.0002 2.89588 20.0002 3.99988V15.9999C20.0002 17.1039 19.1042 17.9999 18.0002 17.9999H10.0002C8.89624 17.9999 8.00024 17.1039 8.00024 15.9999V3.99988C8.00024 2.89588 8.89624 1.99988 10.0002 1.99988H18.0002ZM18.0002 3.99988H10.0002V15.9999H18.0002V3.99988Z" fill="#848B9D"/>
<path fill-rule="evenodd" clip-rule="evenodd" d="M5.99976 20H15.9998C15.9998 21.104 15.1038 22 13.9998 22H5.99976C4.89576 22 3.99976 21.104 3.99976 20V8C3.99976 6.896 4.89576 6 5.99976 6V20Z" fill="#848B9D"/>
</svg>
