<svg width="21" height="12" fill="none" xmlns="http://www.w3.org/2000/svg"><path d="M10.16 9.02a3.022 3.022 0 10-3.022-3.022A3.035 3.035 0 0010.16 9.02zm0-4.903c.254 0 .444.212.444.444a.461.461 0 01-.444.444.97.97 0 00-.972.972.446.446 0 01-.444.444.446.446 0 01-.444-.444c-.02-1.014.825-1.86 1.86-1.86zm9.87 2.579a1.057 1.057 0 000-1.374C10.667-5.457 2.214 3.082.206 5.449a.836.836 0 000 1.099c9.236 10.778 17.605 2.684 19.824.148zm-9.87-4.988a4.293 4.293 0 014.29 4.29 4.293 4.293 0 01-4.29 4.29c-2.367 0-4.269-1.923-4.269-4.29s1.923-4.29 4.27-4.29z" fill="#161F29"/></svg>