<svg width="32" height="32" viewBox="0 0 32 32" fill="none" xmlns="http://www.w3.org/2000/svg"><path d="M32 16a16.057 16.057 0 0 1-.668 4.586c-.042.146-.088.29-.136.434a14.755 14.755 0 0 1-.416 1.12c-.05.12-.103.24-.155.36a16.036 16.036 0 0 1-8.126 8.122c-.066.032-.134.06-.201.09a15.567 15.567 0 0 1-2.75.89 15.937 15.937 0 0 1-3.549.396C7.164 32 .001 24.838.001 16 0 7.163 7.163 0 16 0c8.835 0 16 7.163 16 16z" fill="#F64439"/><path d="M16 23.472c-.435 0-.807-.155-1.117-.464a1.523 1.523 0 0 1-.464-1.117c0-.434.155-.806.464-1.115.31-.31.682-.465 1.117-.465.434 0 .806.155 1.116.465.309.309.463.681.463 1.115 0 .436-.154.807-.463 1.117-.31.31-.682.464-1.116.464zm-1.452-5.739V9.917c0-.424.136-.76.405-1.011.27-.252.619-.378 1.048-.378.415 0 .76.13 1.037.387.276.258.415.592.415 1.002v7.816c0 .418-.14.751-.415 1.002-.277.252-.622.377-1.037.377-.428 0-.778-.126-1.048-.377-.27-.252-.405-.586-.405-1.002z" fill="#fff"/><path d="M17.08 8.957v.003c.247.252.372.57.372.958v7.816c0 .417-.139.751-.415 1.002-.276.252-.622.377-1.037.377-.428 0-.777-.126-1.047-.377-.02-.018-.037-.037-.054-.056v.004l1.777 1.778c.158.076.305.18.44.314.31.31.464.682.464 1.116 0 .436-.155.807-.464 1.117-.31.31-.682.464-1.116.464a1.524 1.524 0 0 1-1.122-.47l7.621 7.621a16.043 16.043 0 0 0 8.126-8.123L17.081 8.957z" fill="#D2382E"/></svg>