<svg width="40" height="40" fill="none" xmlns="http://www.w3.org/2000/svg"><g opacity=".1" fill="#000"><path d="M20 0C8.954 0 0 8.954 0 20s8.954 20 20 20 20-8.954 20-20C39.988 8.96 31.04.012 20 0zm0 38.667C9.69 38.667 1.333 30.309 1.333 20 1.333 9.69 9.691 1.333 20 1.333c10.31 0 18.667 8.358 18.667 18.667C38.655 30.304 30.304 38.655 20 38.667z"/><path d="M30.667 26H30v-6.667a10.01 10.01 0 00-7.333-9.628V8a2.667 2.667 0 00-5.334 0v1.705A10.01 10.01 0 0010 19.333V26h-.666a2 2 0 000 4H15.8a4.64 4.64 0 008.4 0h6.467a2 2 0 000-4zm-12-18a1.333 1.333 0 012.666 0v1.433a8.995 8.995 0 00-2.666 0V8zm-7.334 11.333a8.667 8.667 0 1117.334 0V26H11.333v-6.667zm8.667 12A3.329 3.329 0 0117.334 30h5.333A3.329 3.329 0 0120 31.333zm10.667-2.666H9.333a.667.667 0 010-1.334h21.334a.667.667 0 110 1.334z"/></g></svg>