<svg width="24" height="24" viewBox="0 0 24 24" fill="none" xmlns="http://www.w3.org/2000/svg">
<path fill-rule="evenodd" clip-rule="evenodd" d="M2.40039 12.3999C2.40039 17.9227 6.87754 22.3999 12.4004 22.3999C17.9232 22.3999 22.4004 17.9227 22.4004 12.3999C22.4004 6.87705 17.9232 2.3999 12.4004 2.3999C6.87754 2.3999 2.40039 6.87705 2.40039 12.3999ZM19.9006 12.4001C19.9006 16.5423 16.5428 19.9001 12.4006 19.9001C8.2585 19.9001 4.90063 16.5423 4.90063 12.4001C4.90063 8.25801 8.2585 4.90015 12.4006 4.90015C16.5428 4.90015 19.9006 8.25801 19.9006 12.4001ZM11.1501 8.39989C11.1501 7.84761 11.5979 7.39989 12.1501 7.39989H12.6501C13.2024 7.39989 13.6501 7.84761 13.6501 8.39989V12.6499C13.6501 13.2022 13.2024 13.6499 12.6501 13.6499H12.1501C11.5979 13.6499 11.1501 13.2022 11.1501 12.6499V8.39989ZM12.1501 14.9001C11.5979 14.9001 11.1501 15.3478 11.1501 15.9001V16.4001C11.1501 16.9524 11.5979 17.4001 12.1501 17.4001H12.6501C13.2024 17.4001 13.6501 16.9524 13.6501 16.4001V15.9001C13.6501 15.3478 13.2024 14.9001 12.6501 14.9001H12.1501Z" fill="#FF9400"/>
</svg>
