<svg width="130" height="40" xmlns="http://www.w3.org/2000/svg"><g fill="none" fill-rule="evenodd"><path d="M35.723 22.186c-1.384 5.548-7.003 8.924-12.551 7.541-5.547-1.383-8.923-7.003-7.54-12.55 1.383-5.549 7.002-8.925 12.55-7.542 5.548 1.383 8.924 7.003 7.54 12.551z" fill="#F7931A"/><path d="M30.244 18.206c.206-1.378-.843-2.12-2.278-2.613l.465-1.867-1.136-.283-.453 1.817a47.531 47.531 0 0 0-.91-.214l.456-1.83-1.136-.283-.465 1.866c-.248-.056-.49-.112-.726-.17l.001-.006-1.567-.391-.302 1.213s.843.194.825.206c.46.114.544.419.53.66l-.53 2.127c.031.008.072.02.118.038l-.12-.03-.743 2.979c-.057.14-.2.35-.521.27.011.016-.826-.206-.826-.206l-.564 1.3 1.479.369c.275.069.544.141.81.21l-.47 1.887 1.134.283.466-1.868c.31.084.611.162.906.235l-.464 1.86 1.136.283.47-1.885c1.938.367 3.394.219 4.008-1.533.494-1.411-.025-2.225-1.044-2.756.742-.171 1.301-.66 1.45-1.668zm-2.597 3.64c-.35 1.411-2.726.648-3.497.457l.624-2.501c.77.192 3.24.573 2.873 2.044zm.352-3.66c-.32 1.283-2.298.63-2.94.47l.566-2.268c.642.16 2.708.458 2.374 1.797z" fill="#FFF" fill-rule="nonzero"/><path d="M45.67 15.59c.84 0 1.566.151 2.176.447a4.38 4.38 0 0 1 1.523 1.205c.4.509.698 1.102.89 1.783.191.683.287 1.416.287 2.202a8.825 8.825 0 0 1-.667 3.42 8.873 8.873 0 0 1-1.822 2.806 8.569 8.569 0 0 1-2.726 1.885c-1.047.463-2.184.695-3.406.695-.158 0-.435-.004-.827-.013a12.102 12.102 0 0 1-1.348-.116 15.818 15.818 0 0 1-1.613-.317 8.08 8.08 0 0 1-1.613-.576L41.06 9.957l4.062-.63-1.624 6.762a6.314 6.314 0 0 1 1.047-.366c.35-.087.725-.132 1.127-.132zm-3.406 11.221c.612 0 1.188-.15 1.73-.446a4.553 4.553 0 0 0 1.404-1.192c.392-.5.703-1.063.93-1.692a5.762 5.762 0 0 0 .34-1.967c0-.839-.14-1.493-.419-1.965-.28-.471-.796-.708-1.547-.708-.246 0-.562.047-.955.13a2.386 2.386 0 0 0-1.063.552l-1.73 7.181c.105.018.197.036.276.052.077.018.162.03.247.04.09.01.192.015.316.015h.47zm12.494 2.857h-3.88l3.277-13.785h3.906l-3.303 13.785zm1.888-15.465a2.407 2.407 0 0 1-1.468-.484c-.44-.32-.657-.815-.657-1.481 0-.366.075-.71.222-1.034A2.767 2.767 0 0 1 56.185 9.8c.325-.139.67-.208 1.037-.208.541 0 1.03.16 1.467.484.435.324.655.819.655 1.481 0 .368-.075.713-.223 1.036a2.728 2.728 0 0 1-1.44 1.402 2.555 2.555 0 0 1-1.035.208z" fill="#4D4D4D" fill-rule="nonzero"/><path d="M61.46 12.448l4.063-.63-.997 4.064h4.351l-.786 3.197h-4.325l-1.152 4.822a5.454 5.454 0 0 0-.183 1.126c-.02.35.025.652.13.905.104.254.292.45.563.588.271.141.658.212 1.166.212.419 0 .827-.04 1.22-.119a8.653 8.653 0 0 0 1.192-.327l.29 2.99a13.92 13.92 0 0 1-1.704.496c-.613.141-1.338.209-2.176.209-1.206 0-2.14-.179-2.806-.535-.664-.36-1.134-.85-1.416-1.47-.277-.619-.4-1.332-.366-2.135.036-.805.157-1.651.366-2.543l2.57-10.85zm7.246 11.716a9.68 9.68 0 0 1 .577-3.356 8.255 8.255 0 0 1 1.652-2.754 7.738 7.738 0 0 1 2.61-1.86c1.019-.453 2.16-.681 3.418-.681.787 0 1.49.074 2.11.223.62.15 1.183.345 1.691.59l-1.338 3.041c-.35-.141-.712-.266-1.087-.38-.375-.115-.834-.17-1.376-.17-1.295 0-2.318.446-3.08 1.335-.759.89-1.141 2.089-1.141 3.592 0 .891.192 1.611.578 2.163.384.55 1.093.825 2.122.825.508 0 .999-.053 1.468-.157a7.288 7.288 0 0 0 1.26-.393l.289 3.119c-.49.19-1.032.362-1.625.512-.595.146-1.303.221-2.124.221-1.084 0-2.002-.159-2.752-.47-.751-.318-1.371-.739-1.86-1.272a4.792 4.792 0 0 1-1.062-1.876 7.693 7.693 0 0 1-.33-2.252z" fill="#4D4D4D"/><path d="M85.94 30.034c-.927 0-1.73-.141-2.413-.42a4.453 4.453 0 0 1-1.69-1.18 5.095 5.095 0 0 1-1.008-1.794c-.23-.69-.34-1.454-.34-2.292 0-1.05.17-2.1.51-3.147a8.91 8.91 0 0 1 1.509-2.83 8.055 8.055 0 0 1 2.436-2.06c.958-.531 2.061-.798 3.3-.798.91 0 1.71.141 2.4.42a4.485 4.485 0 0 1 1.704 1.18 5.12 5.12 0 0 1 1.007 1.796c.228.688.341 1.454.341 2.292 0 1.047-.166 2.097-.496 3.147a9.086 9.086 0 0 1-1.468 2.83 7.693 7.693 0 0 1-2.424 2.056c-.97.533-2.093.8-3.369.8zm1.938-11.217c-.575 0-1.083.167-1.519.496a4.283 4.283 0 0 0-1.1 1.26 6.215 6.215 0 0 0-.67 1.664 7.175 7.175 0 0 0-.221 1.716c0 .875.14 1.556.418 2.046.281.488.787.733 1.521.733.577 0 1.083-.166 1.52-.499.435-.331.802-.75 1.1-1.258.297-.505.521-1.06.67-1.664a7.27 7.27 0 0 0 .222-1.716c0-.873-.14-1.556-.42-2.045-.28-.488-.787-.733-1.52-.733zm10.045 10.851h-3.882l3.276-13.785h3.907l-3.3 13.785zm1.885-15.465a2.403 2.403 0 0 1-1.467-.484c-.437-.32-.656-.815-.656-1.481 0-.366.075-.71.223-1.034A2.739 2.739 0 0 1 99.35 9.8a2.589 2.589 0 0 1 1.034-.208c.542 0 1.032.16 1.469.484.436.324.657.819.657 1.481 0 .368-.079.713-.225 1.036a2.72 2.72 0 0 1-.588.84 2.878 2.878 0 0 1-.852.562 2.566 2.566 0 0 1-1.037.208z" fill="#4D4D4D" fill-rule="nonzero"/><path d="M104.02 16.51c.295-.086.624-.19.981-.302a14.462 14.462 0 0 1 2.7-.55c.55-.062 1.177-.093 1.873-.093 2.046 0 3.457.596 4.235 1.784.778 1.188.913 2.814.408 4.875l-1.784 7.443h-3.905l1.73-7.287c.105-.455.187-.894.249-1.324.061-.426.058-.802-.014-1.126a1.349 1.349 0 0 0-.484-.788c-.256-.2-.642-.3-1.167-.3-.506 0-1.02.054-1.546.158l-2.542 10.667h-3.907l3.173-13.157z" fill="#4D4D4D"/></g></svg>