<svg width="86" height="35" viewBox="0 0 86 35" fill="none" xmlns="http://www.w3.org/2000/svg"><path d="M10.29 25.33c-2.44 0-4.36-.62-5.76-1.86-1.4-1.26-2.1-3-2.1-5.22 0-1.04.17-2.16.51-3.36L5.85 4h4.62L7.44 15.31c-.22.76-.33 1.52-.33 2.28 0 1.06.32 1.91.96 2.55.64.62 1.54.93 2.7.93 1.36 0 2.5-.44 3.42-1.32.92-.92 1.6-2.22 2.04-3.9L19.41 4h4.62l-3.36 12.51c-.72 2.72-1.8 4.8-3.24 6.24-1.72 1.72-4.1 2.58-7.14 2.58zM21.92 25l5.64-21h6.66c2.98 0 5.18.71 6.6 2.13 1.08 1.08 1.62 2.52 1.62 4.32 0 2.54-.96 4.54-2.88 6s-4.36 2.19-7.32 2.19h-3.99L26.54 25h-4.62zm7.41-10.41h3.15c1.56 0 2.8-.33 3.72-.99.94-.68 1.41-1.6 1.41-2.76 0-.7-.23-1.28-.69-1.74-.62-.62-1.58-.93-2.88-.93h-3l-1.71 6.42zM41.142 25l5.64-21h4.62l-5.64 21h-4.62z" fill="#4D4D4D"/><path d="M79.466 17.165l-14.227 8.37 6.155-22.77 8.072 14.4z" fill="#F17821" filter="url(#a)"/><path d="M71.378 17.326l-14.191 8.238L63.27 3.06l8.108 14.266z" fill="#239E57" filter="url(#b)"/><defs><filter id="a" x="62.239" y="2.766" width="23.305" height="31.784" filterUnits="userSpaceOnUse" color-interpolation-filters="sRGB"><feFlood flood-opacity="0" result="BackgroundImageFix"/><feColorMatrix in="SourceAlpha" values="0 0 0 0 0 0 0 0 0 0 0 0 0 0 0 0 0 0 127 0"/><feOffset dy="3"/><feGaussianBlur stdDeviation="1.5"/><feColorMatrix values="0 0 0 0 0 0 0 0 0 0 0 0 0 0 0 0 0 0 0.2 0"/><feBlend in2="BackgroundImageFix" result="effect1_dropShadow"/><feBlend in="SourceGraphic" in2="effect1_dropShadow" result="shape"/></filter><filter id="b" x="54.187" y="3.06" width="23.233" height="31.518" filterUnits="userSpaceOnUse" color-interpolation-filters="sRGB"><feFlood flood-opacity="0" result="BackgroundImageFix"/><feColorMatrix in="SourceAlpha" values="0 0 0 0 0 0 0 0 0 0 0 0 0 0 0 0 0 0 127 0"/><feOffset dy="3"/><feGaussianBlur stdDeviation="1.5"/><feColorMatrix values="0 0 0 0 0 0 0 0 0 0 0 0 0 0 0 0 0 0 0.2 0"/><feBlend in2="BackgroundImageFix" result="effect1_dropShadow"/><feBlend in="SourceGraphic" in2="effect1_dropShadow" result="shape"/></filter></defs></svg>