<svg width="156" height="32" viewBox="0 0 156 32" fill="none" xmlns="http://www.w3.org/2000/svg"><path d="M55.908 9.4h3.24v14h-3.24v-14zm11.983 3.08c1.333 0 2.406.4 3.22 1.2.826.8 1.24 1.987 1.24 3.56v6.16h-3.12v-5.68c0-.853-.187-1.486-.56-1.9-.374-.426-.914-.64-1.62-.64-.787 0-1.413.247-1.88.74-.467.48-.7 1.2-.7 2.16v5.32h-3.12V12.64h2.98v1.26a4.04 4.04 0 0 1 1.54-1.04 5.242 5.242 0 0 1 2.02-.38zm17.465-3.92V23.4h-2.98v-1.24c-.773.934-1.893 1.4-3.36 1.4-1.013 0-1.933-.226-2.76-.68a4.888 4.888 0 0 1-1.92-1.94c-.467-.84-.7-1.813-.7-2.92 0-1.106.233-2.08.7-2.92a4.888 4.888 0 0 1 1.92-1.94c.827-.453 1.747-.68 2.76-.68 1.373 0 2.447.434 3.22 1.3V8.56h3.12zM79.556 21c.787 0 1.44-.266 1.96-.8.52-.546.78-1.273.78-2.18 0-.906-.26-1.626-.78-2.16-.52-.546-1.173-.82-1.96-.82-.8 0-1.46.274-1.98.82-.52.534-.78 1.254-.78 2.16 0 .907.26 1.634.78 2.18.52.534 1.18.8 1.98.8zm7.788-8.36h3.12V23.4h-3.12V12.64zm1.56-1.5c-.574 0-1.04-.166-1.4-.5a1.622 1.622 0 0 1-.54-1.24c0-.493.18-.906.54-1.24.36-.333.826-.5 1.4-.5.573 0 1.04.16 1.4.48.36.32.54.72.54 1.2 0 .52-.18.954-.54 1.3-.36.334-.827.5-1.4.5zm7.895 1.34c1.667 0 2.947.4 3.84 1.2.894.787 1.34 1.98 1.34 3.58v6.14h-2.92v-1.34c-.586 1-1.68 1.5-3.28 1.5-.826 0-1.546-.14-2.16-.42-.6-.28-1.06-.666-1.38-1.16a3.019 3.019 0 0 1-.48-1.68c0-1 .374-1.786 1.12-2.36.76-.573 1.927-.86 3.5-.86h2.48c0-.68-.206-1.2-.62-1.56-.413-.373-1.033-.56-1.86-.56-.573 0-1.14.094-1.7.28a4.34 4.34 0 0 0-1.4.72l-1.12-2.18c.587-.413 1.287-.733 2.1-.96a9.565 9.565 0 0 1 2.54-.34zm-.24 8.98c.534 0 1.007-.12 1.42-.36.414-.253.707-.62.88-1.1v-1.1h-2.14c-1.28 0-1.92.42-1.92 1.26 0 .4.154.72.46.96.32.227.754.34 1.3.34zm17.308 2.1c-1.146 0-2.18-.233-3.1-.7a5.48 5.48 0 0 1-2.14-1.98c-.506-.84-.76-1.793-.76-2.86 0-1.066.254-2.02.76-2.86a5.337 5.337 0 0 1 2.14-1.96c.92-.48 1.954-.72 3.1-.72 1.134 0 2.12.24 2.96.72a4.143 4.143 0 0 1 1.86 2.02l-2.42 1.3c-.56-.986-1.366-1.48-2.42-1.48-.813 0-1.486.267-2.02.8-.533.534-.8 1.26-.8 2.18 0 .92.267 1.647.8 2.18.534.534 1.207.8 2.02.8 1.067 0 1.874-.493 2.42-1.48l2.42 1.32c-.386.854-1.006 1.52-1.86 2-.84.48-1.826.72-2.96.72zm10.057-11.08c1.666 0 2.946.4 3.84 1.2.893.787 1.34 1.98 1.34 3.58v6.14h-2.92v-1.34c-.587 1-1.68 1.5-3.28 1.5-.827 0-1.547-.14-2.16-.42-.6-.28-1.06-.666-1.38-1.16a3.019 3.019 0 0 1-.48-1.68c0-1 .373-1.786 1.12-2.36.76-.573 1.926-.86 3.5-.86h2.48c0-.68-.207-1.2-.62-1.56-.414-.373-1.034-.56-1.86-.56-.574 0-1.14.094-1.7.28a4.33 4.33 0 0 0-1.4.72l-1.12-2.18c.586-.413 1.286-.733 2.1-.96a9.56 9.56 0 0 1 2.54-.34zm-.24 8.98c.533 0 1.006-.12 1.42-.36.413-.253.706-.62.88-1.1v-1.1h-2.14c-1.28 0-1.92.42-1.92 1.26 0 .4.153.72.46.96.32.227.753.34 1.3.34zm10.963 2.1c-.893 0-1.766-.106-2.62-.32-.853-.226-1.533-.506-2.04-.84l1.04-2.24c.48.307 1.06.56 1.74.76.68.187 1.347.28 2 .28 1.32 0 1.98-.326 1.98-.98 0-.306-.18-.526-.54-.66-.36-.133-.913-.246-1.66-.34-.88-.133-1.606-.286-2.18-.46a3.456 3.456 0 0 1-1.5-.92c-.413-.44-.62-1.066-.62-1.88 0-.68.194-1.28.58-1.8.4-.533.974-.946 1.72-1.24.76-.293 1.654-.44 2.68-.44.76 0 1.514.087 2.26.26.76.16 1.387.387 1.88.68l-1.04 2.22a6.207 6.207 0 0 0-3.1-.8c-.666 0-1.166.094-1.5.28-.333.187-.5.427-.5.72 0 .334.18.567.54.7.36.134.934.26 1.72.38.88.147 1.6.307 2.16.48.56.16 1.047.46 1.46.9.414.44.62 1.054.62 1.84 0 .667-.2 1.26-.6 1.78-.4.52-.986.927-1.76 1.22-.76.28-1.666.42-2.72.42zm12.645-11.08c1.334 0 2.407.4 3.22 1.2.827.8 1.24 1.987 1.24 3.56v6.16h-3.12v-5.68c0-.853-.186-1.486-.56-1.9-.373-.426-.913-.64-1.62-.64-.786 0-1.413.247-1.88.74-.466.48-.7 1.2-.7 2.16v5.32h-3.12V8.56h3.12v5.2a4.054 4.054 0 0 1 1.5-.94 5.287 5.287 0 0 1 1.92-.34z" fill="#4D5154"/><path d="M40.015 20.106H9.641a1.523 1.523 0 0 1-1.518-1.518V1.882c0-.835.683-1.519 1.518-1.519h30.375c.835 0 1.518.684 1.518 1.519v16.706c0 .835-.683 1.518-1.519 1.518z" fill="#E0AA30"/><path d="M36.218 14.03c-1.746 0-3.34.836-4.252 2.203-.76-.38-1.595-.684-2.582-.684-2.657 0-4.86 1.975-5.24 4.557h15.871c.76 0 1.367-.532 1.519-1.291-.304-2.658-2.582-4.784-5.316-4.784z" fill="#E0AA30"/><path d="M36.978 18.588h-24.3a3.046 3.046 0 0 0-3.037-3.038V4.92a3.046 3.046 0 0 0 3.037-3.038h24.3a3.046 3.046 0 0 0 3.037 3.037V15.55a3.046 3.046 0 0 0-3.037 3.038z" fill="#FFF097"/><path d="M24.828 17.069c3.355 0 6.075-3.06 6.075-6.834 0-3.775-2.72-6.834-6.075-6.834-3.354 0-6.074 3.06-6.074 6.834 0 3.774 2.72 6.834 6.074 6.834z" fill="#E0AA30"/><path d="M26.925 8.308h-.614a4.968 4.968 0 0 0-.17-.682h.784a.682.682 0 1 0 0-1.364H22.73a.682.682 0 1 0 0 1.364h1.228c.34 0 .648.341.852.682h-2.08a.682.682 0 1 0 0 1.364h2.08c-.034 0-.034.034-.068.068a1.159 1.159 0 0 1-.784.273H22.73a.648.648 0 0 0-.613.443.716.716 0 0 0 .17.75l2.966 2.83c.13.119.302.18.478.17a.682.682 0 0 0 .477-1.16l-1.807-1.704a2.353 2.353 0 0 0 1.91-1.67h.613a.682.682 0 0 0 0-1.364z" fill="#FEDB41"/><path d="M15.716 11.753a1.519 1.519 0 1 0 0-3.037 1.519 1.519 0 0 0 0 3.037zM33.94 11.753a1.519 1.519 0 1 0 0-3.037 1.519 1.519 0 0 0 0 3.037z" fill="#E0AA30"/><path d="M36.921 25.135L6.927 20.346a1.523 1.523 0 0 1-1.26-1.739L8.3 2.11A1.523 1.523 0 0 1 10.04.85l29.994 4.789a1.523 1.523 0 0 1 1.26 1.739l-2.633 16.497a1.523 1.523 0 0 1-1.74 1.26z" fill="#E0AA30"/><path d="M34.13 18.537c-1.724-.275-3.43.298-4.546 1.504-.69-.494-1.467-.926-2.442-1.082-2.624-.419-5.11 1.184-5.892 3.673l15.672 2.502c.75.12 1.433-.309 1.703-1.035.119-2.672-1.795-5.131-4.495-5.562z" fill="#E0AA30"/><path d="M34.162 23.156l-23.995-3.83a3.046 3.046 0 0 0-2.521-3.479L9.322 5.349a3.046 3.046 0 0 0 3.478-2.52l23.996 3.83a3.046 3.046 0 0 0 2.52 3.479L37.64 20.636a3.046 3.046 0 0 0-3.478 2.52z" fill="#FFF097"/><path d="M22.404 19.74c3.313.53 6.481-2.063 7.076-5.79.595-3.728-1.608-7.178-4.921-7.707-3.313-.529-6.481 2.064-7.076 5.791-.596 3.727 1.608 7.178 4.92 7.706z" fill="#E0AA30"/><path d="M25.856 11.42l-.606-.098a4.978 4.978 0 0 0-.061-.7l.774.124a.682.682 0 1 0 .215-1.347l-4.14-.661a.682.682 0 0 0-.216 1.347l1.212.193c.337.054.586.439.735.808l-2.054-.328a.682.682 0 0 0-.215 1.347l2.053.328c-.033-.006-.038.028-.078.056a1.16 1.16 0 0 1-.817.146l-1.212-.194a.648.648 0 0 0-.676.341.716.716 0 0 0 .05.768l2.483 3.262c.109.138.27.226.445.243a.682.682 0 0 0 .654-1.069l-1.516-1.968a2.353 2.353 0 0 0 2.149-1.349l.606.097a.682.682 0 0 0 .215-1.347z" fill="#FEDB41"/><path d="M14.243 13.055a1.519 1.519 0 1 0 .48-3 1.519 1.519 0 0 0-.48 3zM32.24 15.928a1.519 1.519 0 1 0 .479-2.999 1.519 1.519 0 0 0-.48 3z" fill="#E0AA30"/><path d="M30.204 31.04L2.268 19.119a1.523 1.523 0 0 1-.8-1.993L8.024 1.76a1.523 1.523 0 0 1 1.993-.8l27.936 11.922a1.523 1.523 0 0 1 .8 1.993L32.198 30.24a1.523 1.523 0 0 1-1.993.8z" fill="#E0AA30"/><path d="M29.096 23.963c-1.606-.686-3.4-.544-4.775.356-.55-.647-1.199-1.255-2.107-1.642-2.444-1.043-5.244-.092-6.607 2.134l14.597 6.23c.698.297 1.465.047 1.903-.592.764-2.564-.497-5.413-3.01-6.486z" fill="#E0AA30"/><path d="M28.006 28.45L5.657 18.914a3.046 3.046 0 0 0-1.601-3.986l4.173-9.778a3.046 3.046 0 0 0 3.986-1.601l22.349 9.538a3.046 3.046 0 0 0 1.601 3.986l-4.173 9.777a3.046 3.046 0 0 0-3.986 1.602z" fill="#FFF097"/><path d="M17.428 22.285c3.086 1.317 6.788-.43 8.27-3.9 1.481-3.472.18-7.354-2.905-8.671-3.086-1.317-6.788.43-8.27 3.901-1.481 3.472-.18 7.353 2.905 8.67z" fill="#E0AA30"/><path d="M22.795 15.05l-.564-.24c.053-.229.09-.46.11-.695l.722.308a.682.682 0 1 0 .535-1.254l-3.857-1.646a.682.682 0 1 0-.535 1.254l1.129.482c.313.134.462.568.516.962l-1.912-.817a.682.682 0 0 0-.536 1.255l1.913.816c-.031-.013-.045.018-.09.036a1.16 1.16 0 0 1-.828-.057l-1.129-.482a.648.648 0 0 0-.738.167.716.716 0 0 0-.138.757l1.618 3.767c.072.16.206.284.372.344a.682.682 0 0 0 .894-.88l-.993-2.276c.889.23 1.83-.077 2.412-.787l.564.24a.682.682 0 1 0 .535-1.254z" fill="#FFF097"/></svg>