<svg width="40" height="40" xmlns="http://www.w3.org/2000/svg"><g fill="none" fill-rule="evenodd"><rect fill="#E5E9ED" width="40" height="40" rx="20"/><path d="M20 9l9.443 5.039a.5.5 0 0 1 .173.685c-.09.152-.253.276-.43.276H10.814c-.276 0-.5-.256-.5-.532a.5.5 0 0 1 .244-.43L20 9zm-6.5 8h1a.5.5 0 0 1 .5.5v7a.5.5 0 0 1-.5.5h-1a.5.5 0 0 1-.5-.5v-7a.5.5 0 0 1 .5-.5zm4 0h1a.5.5 0 0 1 .5.5v7a.5.5 0 0 1-.5.5h-1a.5.5 0 0 1-.5-.5v-7a.5.5 0 0 1 .5-.5zM30 27.5v1a.5.5 0 0 1-.5.5h-19a.5.5 0 0 1-.5-.5v-1a.5.5 0 0 1 .5-.5h19a.5.5 0 0 1 .5.5zM21.5 17h1a.5.5 0 0 1 .5.5v7a.5.5 0 0 1-.5.5h-1a.5.5 0 0 1-.5-.5v-7a.5.5 0 0 1 .5-.5zm4 0h1a.5.5 0 0 1 .5.5v7a.5.5 0 0 1-.5.5h-1a.5.5 0 0 1-.5-.5v-7a.5.5 0 0 1 .5-.5z" fill="#00294D" fill-rule="nonzero"/></g></svg>