<svg width="130" height="40" xmlns="http://www.w3.org/2000/svg"><g fill="none" fill-rule="evenodd"><path d="M33 4h64v32H33z"/><path d="M78.971 15.285a2.634 2.634 0 0 0 2.627-2.642A2.635 2.635 0 0 0 78.971 10a2.635 2.635 0 0 0-2.624 2.643 2.634 2.634 0 0 0 2.624 2.642zm-20.118 1.427c-.12.3-.972 2.725-3.036 5.239V11.203l-5.497 1.093V31.78h5.497v-6.022c1.593 2.403 2.379 6.022 2.379 6.022h6.585c-.651-2.726-3.5-7.75-3.5-7.75 2.557-3.264 3.68-6.74 3.858-7.317h-6.286zm14.452-.203c-4.923.159-7.424 2.382-7.424 6.802v8.468h5.373v-6.906c0-2.646.344-3.78 3.465-3.888v-4.399c-.525-.112-1.414-.077-1.414-.077zM41.1 18.857c-.674-.044-2.233-.145-2.233-1.558 0-1.704 2.245-1.704 3.087-1.704 1.48 0 3.397.44 4.766.852 0 0 .764.27 1.414.548l.06.017v-4.669l-.083-.024c-1.616-.569-3.494-1.116-6.977-1.116-6.006 0-8.134 3.52-8.134 6.537 0 1.739.74 5.832 7.619 6.304.582.036 2.13.126 2.13 1.585 0 1.206-1.267 1.916-3.397 1.916-2.335 0-4.601-.6-5.977-1.167v4.807c2.06.543 4.382.815 7.103.815 5.872 0 8.502-3.332 8.502-6.633 0-3.744-2.943-6.177-7.88-6.51zM76.308 31.78h5.329V16.73h-5.329v15.05zM91.67 12.162v19.617H97V11.203l-5.33.959zm-7.776 0l5.324-.96V31.78h-5.324V12.162z" fill="#862165" fill-rule="nonzero"/></g></svg>